<svg id="Layer_1" data-name="Layer 1" xmlns="http://www.w3.org/2000/svg" viewBox="0 0 160 160"><defs><style>.cls-1{fill:none;}.cls-2,.cls-3{fill:#fff;}.cls-2,.cls-5{opacity:0.4;}.cls-4{fill:#1f55ff;}</style></defs><rect class="cls-1" width="160" height="160"/><path class="cls-2" d="M90,58.82,55.53,127.76A5,5,0,0,0,55,130l.13.09a25.45,25.45,0,0,1,5.07,5.13,33,33,0,0,1,9.93,4.87A24.11,24.11,0,0,1,77,147.61,23.22,23.22,0,0,1,79.53,155H90a5,5,0,0,0,5-5,24.43,24.43,0,0,1,3.22-12.7,26.32,26.32,0,0,1,11.1-9.93,35.15,35.15,0,0,1,4.88-2c.61-.19,1.09-.32,1.4-.4l.34-.08h0a5,5,0,0,0,3.48-7.14Z"/><path class="cls-3" d="M155.37,75h-6.16a69.85,69.85,0,0,0-33.27-50h15a15,15,0,1,0,0-10H95V9.63A4.64,4.64,0,0,0,90.37,5H69.63A4.64,4.64,0,0,0,65,9.63V15H29.08a15,15,0,1,0,0,10h15A69.85,69.85,0,0,0,10.79,75H4.63A4.64,4.64,0,0,0,0,79.63v20.74A4.64,4.64,0,0,0,4.63,105H25.37A4.64,4.64,0,0,0,30,100.37V79.63A4.64,4.64,0,0,0,25.37,75H20.89A60.07,60.07,0,0,1,65,27v3.38A4.64,4.64,0,0,0,69.63,35H90.37A4.64,4.64,0,0,0,95,30.37V27a60.07,60.07,0,0,1,44.11,48h-4.48A4.64,4.64,0,0,0,130,79.63v20.74a4.64,4.64,0,0,0,4.63,4.63h20.74a4.64,4.64,0,0,0,4.63-4.63V79.63A4.64,4.64,0,0,0,155.37,75ZM20,95H10V85H20ZM145,15a5,5,0,1,1-5,5A5,5,0,0,1,145,15ZM15,25a5,5,0,1,1,5-5A5,5,0,0,1,15,25Zm60-9.75V15H85V25H75ZM150,95H140V85h10Z"/><path class="cls-4" d="M84.47,47.76a5,5,0,0,0-8.94,0l-35,70A5,5,0,0,0,44,124.9h0a32.42,32.42,0,0,1,11.12,5.18A24.11,24.11,0,0,1,62,137.61,24.55,24.55,0,0,1,65,150a5,5,0,0,0,5,5H90a5,5,0,0,0,5-5,24.43,24.43,0,0,1,3.22-12.7,26.32,26.32,0,0,1,11.1-9.93,35.15,35.15,0,0,1,4.88-2c.61-.19,1.09-.32,1.4-.4l.34-.08h0a5,5,0,0,0,3.48-7.14Zm15.16,73.77a34.29,34.29,0,0,0-10,10.7A33.17,33.17,0,0,0,85.31,145H74.68a33.16,33.16,0,0,0-4.28-12.77,36.26,36.26,0,0,0-15.25-13.8c-1.09-.55-2.12-1-3.08-1.39L75,71.18V91.39a10,10,0,1,0,10,0V71.18l22.93,45.87A42.38,42.38,0,0,0,99.63,121.53Z"/><g class="cls-5"><rect class="cls-2" x="15" y="90" width="5" height="5"/><rect class="cls-2" x="80" y="20" width="5" height="5"/><rect class="cls-2" x="145" y="90" width="5" height="5"/></g><path class="cls-3" d="M84.47,47.76a5,5,0,0,0-8.94,0l-35,70A5,5,0,0,0,44,124.9h0a32.42,32.42,0,0,1,11.12,5.18A24.11,24.11,0,0,1,62,137.61,24.55,24.55,0,0,1,65,150a5,5,0,0,0,5,5H90a5,5,0,0,0,5-5,24.43,24.43,0,0,1,3.22-12.7,26.32,26.32,0,0,1,11.1-9.93,35.15,35.15,0,0,1,4.88-2c.61-.19,1.09-.32,1.4-.4l.34-.08h0a5,5,0,0,0,3.48-7.14Zm15.16,73.77a34.29,34.29,0,0,0-10,10.7A33.17,33.17,0,0,0,85.31,145H74.68a33.16,33.16,0,0,0-4.28-12.77,36.26,36.26,0,0,0-15.25-13.8c-1.09-.55-2.12-1-3.08-1.39L75,71.18V91.39a10,10,0,1,0,10,0V71.18l22.93,45.87A42.38,42.38,0,0,0,99.63,121.53Z"/></svg>