<svg id="Layer_1" data-name="Layer 1" xmlns="http://www.w3.org/2000/svg" viewBox="0 0 160 160"><defs><style>.cls-1{fill:none;}.cls-2,.cls-3{fill:#fff;}.cls-2{opacity:0.4;}</style></defs><rect class="cls-1" width="160" height="160"/><path class="cls-2" d="M18.53,137.61a9.37,9.37,0,0,0,0,13.25L15,154.4l3.54-3.54a9.37,9.37,0,0,0,13.24,0L96,86.61,99.39,70,82.78,73.37Z"/><path class="cls-2" d="M63,26l8.52,6.39A20,20,0,0,1,90,20H50A10,10,0,0,0,40,30v8.75L57,26A5,5,0,0,1,63,26Z"/><path class="cls-2" d="M111.71,20H90a20,20,0,0,1,18.14,11.79c.23.1.47.19.7.3L117,26a5,5,0,0,1,6,0l27,20.25V20Z"/><path class="cls-3" d="M159.66,16.67l-.27-1.32c-.11-.45-.27-.9-.42-1.34a18.93,18.93,0,0,0-1.38-3.31A20,20,0,0,0,140,0H40A20.06,20.06,0,0,0,20,20v80a18.34,18.34,0,0,0,.34,3.33l.27,1.32A12.25,12.25,0,0,0,21,106a18.23,18.23,0,0,0,1.39,3.31l.34.55L5.67,126.94a19.37,19.37,0,0,0,0,27.39h0a19.37,19.37,0,0,0,27.39,0L67.39,120H140a20.06,20.06,0,0,0,20-20V20A18.34,18.34,0,0,0,159.66,16.67ZM30,58.75l30-22.5L88.08,57.31,73.53,60.26A5,5,0,0,0,71,61.63L30.33,102.28A9.58,9.58,0,0,1,30,100Zm67.79-6.66L80.12,38.84a9.94,9.94,0,0,1,19.76,0L90,46.25ZM26,147.26a9.38,9.38,0,0,1-13.25,0l-3.53,3.53,3.53-3.53a9.38,9.38,0,0,1,0-13.25L23,123.8,36.2,137.05ZM43.27,130,30,116.73l47-47L93.6,66.4,90.24,83ZM150,100a10,10,0,0,1-10,10H77.39l21-21a5.1,5.1,0,0,0,1.37-2.55L104.9,61a4.91,4.91,0,0,0,0-1.53c0-.13,0-.25-.06-.38a5,5,0,0,0-.53-1.51s0-.07,0-.1a5,5,0,0,0-.76-1c-.13-.12-.27-.2-.4-.31S103.06,56,103,56l-4.67-3.5L120,36.25l30,22.5Zm0-53.75L123,26a5,5,0,0,0-6,0l-8.52,6.39a20,20,0,0,0-37,0L63,26a5,5,0,0,0-6,0L30,46.25V20A10,10,0,0,1,40,10H140a10,10,0,0,1,10,10Z"/></svg>