<svg id="Layer_1" data-name="Layer 1" xmlns="http://www.w3.org/2000/svg" viewBox="0 0 160 160"><defs><style>.cls-1{fill:none;}.cls-2,.cls-3{fill:#fff;}.cls-2{opacity:0.4;}</style></defs><rect class="cls-1" width="160" height="160"/><path class="cls-2" d="M50,143.05V75H22A2,2,0,0,0,20,77V145H48.05A2,2,0,0,0,50,143.05Z"/><path class="cls-2" d="M150,25H50A10,10,0,0,0,40,35V55h8A12,12,0,0,1,60,67V95H160V35A10,10,0,0,0,150,25Z"/><circle class="cls-3" cx="40" cy="75" r="5"/><circle class="cls-3" cx="90" cy="105" r="5"/><path class="cls-3" d="M140,5H40A20.06,20.06,0,0,0,20,25V55H12A12,12,0,0,0,0,67v76.1A12,12,0,0,0,12,155h36.1a12,12,0,0,0,12-11.95V125H85v10H70a5,5,0,0,0,0,10h40a5,5,0,0,0,0-10H95V125h45a20.06,20.06,0,0,0,20-20V25A20.06,20.06,0,0,0,140,5ZM50,143.05a2,2,0,0,1-2,1.95H12A2,2,0,0,1,10,143.05V67A2,2,0,0,1,12,65h36.1a2,2,0,0,1,2,2v76.1ZM150,100v5a10,10,0,0,1-10,10H60V95h90Zm0-15H60V67a12,12,0,0,0-12-12H30V25A10,10,0,0,1,40,15H140a10,10,0,0,1,10,10Z"/></svg>